<svg xmlns="http://www.w3.org/2000/svg" xmlns:xlink="http://www.w3.org/1999/xlink" width="80" height="80" viewBox="0 0 80 80"><defs><clipPath id="b"><rect width="80" height="80"/></clipPath></defs><g id="a" clip-path="url(#b)"><g transform="translate(-478.44 -80.911)"><g transform="translate(490.974 96.27)"><path d="M531.152,89.542H486.06a2.379,2.379,0,1,1,0-4.757h45.092a2.379,2.379,0,0,1,0,4.757Z" transform="translate(-483.681 -84.785)" fill="#ff7800"/></g><g transform="translate(490.974 111.093)"><path d="M531.152,93.285H486.06a2.381,2.381,0,0,1,0-4.761h45.092a2.381,2.381,0,0,1,0,4.761Z" transform="translate(-483.681 -88.524)" fill="#ff7800"/></g><g transform="translate(490.974 126.031)"><path d="M521.161,97.049h-35.1a2.379,2.379,0,1,1,0-4.757h35.1a2.379,2.379,0,0,1,0,4.757Z" transform="translate(-483.681 -92.292)" fill="#ff7800"/></g><g transform="translate(481.221 80.911)"><path d="M518.4,160.9H499.458a18.256,18.256,0,0,1-18.237-18.233V99.148a18.257,18.257,0,0,1,18.237-18.237h32.965a18.257,18.257,0,0,1,18.237,18.237v26.745a2.377,2.377,0,0,1-4.753,0V99.148a13.5,13.5,0,0,0-13.483-13.479H499.458a13.493,13.493,0,0,0-13.479,13.479V142.67a13.493,13.493,0,0,0,13.479,13.479H518.4a2.377,2.377,0,0,1,0,4.753Z" transform="translate(-481.221 -80.911)" fill="#ff7800"/></g><g transform="translate(525.62 132.168)"><path d="M520.172,113.5a14.365,14.365,0,1,1-2.5-14.708,1.164,1.164,0,0,0,.079-.357,2.366,2.366,0,1,1,4.678.714,8.8,8.8,0,0,1-8.643,7.453,7.736,7.736,0,0,1-1.348-.119,2.366,2.366,0,1,1,.713-4.678,5.857,5.857,0,0,0,.833.04,9.6,9.6,0,1,0,1.745,9.911,2.385,2.385,0,0,1,3.092-1.348A2.414,2.414,0,0,1,520.172,113.5Z" transform="translate(-492.42 -93.84)" fill="#ff7800"/></g></g></g></svg>