<svg xmlns="http://www.w3.org/2000/svg" xmlns:xlink="http://www.w3.org/1999/xlink" width="80" height="80" viewBox="0 0 80 80"><defs><clipPath id="b"><rect width="80" height="80"/></clipPath></defs><g id="a" clip-path="url(#b)"><g transform="translate(5.022)"><rect width="49.957" height="5.088" rx="0.639" transform="translate(10.02 14.856)" fill="#ff7800"/><rect width="49.957" height="5.088" rx="0.639" transform="translate(10.02 29.795)" fill="#ff7800"/><rect width="49.957" height="5.088" rx="0.639" transform="translate(10.02 44.501)" fill="#ff7800"/><rect width="9.973" height="4.877" rx="0.612" transform="translate(49.845 75.123)" fill="#ff7800"/><rect width="9.973" height="4.877" rx="0.612" transform="translate(29.981 75.123)" fill="#ff7800"/><rect width="9.973" height="4.877" rx="0.612" transform="translate(9.976 75.123)" fill="#ff7800"/><path d="M60.929,1.954H15.578a12.276,12.276,0,0,0-12.3,12.283V69.5a3.551,3.551,0,0,0,.04.613v4.416a2.365,2.365,0,0,0,2.357,2.357H5.7a2.367,2.367,0,0,0,2.357-2.357V14.237a7.54,7.54,0,0,1,7.525-7.513h45.35a7.54,7.54,0,0,1,7.525,7.513V59.229l0,.028V74.531a2.365,2.365,0,0,0,2.357,2.357h.024a2.367,2.367,0,0,0,2.357-2.357V69.988l0-.008a1.938,1.938,0,0,0,.04-.478V14.237A12.3,12.3,0,0,0,60.929,1.954Z" transform="translate(-3.275 -1.954)" fill="#ff7800"/></g></g></svg>