<svg xmlns="http://www.w3.org/2000/svg" xmlns:xlink="http://www.w3.org/1999/xlink" width="80" height="80" viewBox="0 0 80 80"><defs><clipPath id="b"><rect width="80" height="80"/></clipPath></defs><g id="a" clip-path="url(#b)"><path d="M73.241,21.946a2.792,2.792,0,0,0,0-3.946l-.046.046A2.737,2.737,0,0,0,69.3,18l-6.184,6.184a34.33,34.33,0,0,0-6.762-5.172l3.34-8.562A2.8,2.8,0,0,0,58.1,6.831l-.023.064A2.735,2.735,0,0,0,54.49,8.417l-3.181,8.157a34.112,34.112,0,0,0-9.291-2.155V5.546a2.789,2.789,0,0,0-2.789-2.789v.064A2.735,2.735,0,0,0,36.44,5.546V14.4a34.025,34.025,0,0,0-9.583,2.146L23.686,8.417a2.735,2.735,0,0,0-3.591-1.522l-.023-.064a2.8,2.8,0,0,0-1.586,3.618l3.322,8.517a34.662,34.662,0,0,0-6.79,5.177L8.876,18a2.737,2.737,0,0,0-3.9.046L4.93,18a2.792,2.792,0,0,0,0,3.946L11.387,28.4a34.226,34.226,0,1,0,61.9,20.109,34.015,34.015,0,0,0-6.553-20.059Zm-34.2,55.347A28.781,28.781,0,1,1,67.819,48.508,28.815,28.815,0,0,1,39.042,77.293Z" transform="translate(0.915 -2.757)" fill="#00aa4b"/></g></svg>