<svg xmlns="http://www.w3.org/2000/svg" xmlns:xlink="http://www.w3.org/1999/xlink" width="80" height="80" viewBox="0 0 80 80"><defs><clipPath id="b"><rect width="80" height="80"/></clipPath></defs><g id="a" clip-path="url(#b)"><g transform="translate(0 0)"><g transform="translate(20.19 0)"><path d="M26.886,41.455A19.758,19.758,0,1,1,46.644,21.7,19.784,19.784,0,0,1,26.886,41.455Zm0-34.734A14.976,14.976,0,1,0,41.862,21.7,15,15,0,0,0,26.886,6.721Z" transform="translate(-7.128 -1.939)" fill="#ff4131"/></g><path d="M42.108,45.922v-.1a2.474,2.474,0,0,0-2.445-2.433H20.946c-7.681,0-13.911-4.838-13.911-12.519S13.265,18.1,20.946,18.1H49.227a2.472,2.472,0,0,0,2.385-2.425v-.092a2.462,2.462,0,0,0-2.341-2.413H20.907c-10.405,0-18.841,7.295-18.841,17.7S10.5,48.323,20.907,48.323H39.831A2.462,2.462,0,0,0,42.108,45.922Z" transform="translate(-2.066 31.634)" fill="#ff4131"/><path d="M44.479,29.436a2.552,2.552,0,0,1-2.533,2.533H32.092v9.855a2.535,2.535,0,0,1-5.069,0V31.969H17.168a2.533,2.533,0,0,1,0-5.065h9.855V17.049a2.535,2.535,0,0,1,5.069,0V26.9h9.855A2.552,2.552,0,0,1,44.479,29.436Z" transform="translate(35.494 35.644)" fill="#ff4131"/></g></g></svg>