<svg xmlns="http://www.w3.org/2000/svg" xmlns:xlink="http://www.w3.org/1999/xlink" width="80" height="80" viewBox="0 0 80 80"><defs><clipPath id="b"><rect width="80" height="80"/></clipPath></defs><g id="a" clip-path="url(#b)"><g transform="translate(0 1.364)"><g transform="translate(29.251 9.509)"><path d="M30.564,38.213A16.77,16.77,0,1,1,47.332,21.441,16.793,16.793,0,0,1,30.564,38.213Zm0-28.618A11.849,11.849,0,1,0,42.41,21.441,11.862,11.862,0,0,0,30.564,9.594Z" transform="translate(-13.792 -4.673)" fill="#ff4131"/></g><path d="M61.444,14.214H25.451c-8.833,0-15.993,6.19-15.993,15.023s7.16,14.812,15.993,14.812H61.444c8.833,0,15.993-5.979,15.993-14.812S70.277,14.214,61.444,14.214Zm-.06,24.846H25.526c-6.035,0-10.924-3.8-10.924-9.831S19.492,19.2,25.526,19.2H61.384c6.035,0,11.266,3.991,11.266,10.026S67.418,39.06,61.384,39.06Z" transform="translate(2.563 33.224)" fill="#ff4131"/><path d="M31.753,13.828V13.8a2.082,2.082,0,0,0-1.92-2.051H22.3c-8.766,0-15.87,6.142-15.87,14.9a13.991,13.991,0,0,0,3.459,9.318,2.06,2.06,0,0,0,2.572-.127l.179-.179a2.085,2.085,0,0,0-.072-2.866c-.052-.052-.028-.044.016-.016a10.053,10.053,0,0,1-1.968-6.13c0-6.472,5.243-10.753,11.715-10.753h7.426A2.1,2.1,0,0,0,31.753,13.828Z" transform="translate(-6.434 25.89)" fill="#ff4131"/><path d="M32.674,8.459a2.437,2.437,0,0,0,3.307-.982,2.413,2.413,0,0,0-.787-3.144,16.162,16.162,0,0,0-7.819-2.051A16.66,16.66,0,0,0,10.734,18.922a16.407,16.407,0,0,0,4.556,11.3c.012.008.008-.016.028,0a2.439,2.439,0,0,0,2.946-3.888c-.083-.064-.052-.056.044-.012a11.545,11.545,0,0,1-2.687-7.4A11.768,11.768,0,0,1,27.375,7.167a11.5,11.5,0,0,1,5.287,1.3Z" transform="translate(6.36 -2.281)" fill="#ff4131"/></g></g></svg>