<svg xmlns="http://www.w3.org/2000/svg" width="56.843" height="56.833" viewBox="0 0 56.843 56.833"><g transform="translate(-459.247 -4679.961)"><path d="M.628,0H36a.628.628,0,0,1,.628.628V3.437A.627.627,0,0,1,36,4.064H.627A.627.627,0,0,1,0,3.437V.628A.628.628,0,0,1,.628,0Z" transform="translate(479.461 4686.45)" fill="#f15a2c"/><path d="M.628,0H15.567a.628.628,0,0,1,.628.628V3.437a.627.627,0,0,1-.627.627H.628A.628.628,0,0,1,0,3.437V.628A.628.628,0,0,1,.628,0Z" transform="translate(479.461 4728.583)" fill="#f15a2c"/><path d="M.628,0H27.71a.628.628,0,0,1,.628.628V3.437a.627.627,0,0,1-.627.627H.627A.627.627,0,0,1,0,3.437V.628A.628.628,0,0,1,.628,0Z" transform="translate(479.461 4706.184)" fill="#f15a2c"/><path d="M-160.434,394.182a4.329,4.329,0,0,1-4.307,4.339,4.344,4.344,0,0,1-4.339-4.339,4.329,4.329,0,0,1,4.339-4.307,4.314,4.314,0,0,1,4.307,4.307m3.886,0a8.182,8.182,0,0,0-8.193-8.193,8.207,8.207,0,0,0-8.225,8.193,8.235,8.235,0,0,0,8.225,8.225,8.209,8.209,0,0,0,8.193-8.225Z" transform="translate(632.213 4314.147)" fill="#f15a2c"/><path d="M-160.434,400.432a4.329,4.329,0,0,1-4.307,4.339,4.344,4.344,0,0,1-4.339-4.339,4.329,4.329,0,0,1,4.339-4.307,4.313,4.313,0,0,1,4.307,4.307m3.886,0a8.182,8.182,0,0,0-8.193-8.193,8.207,8.207,0,0,0-8.225,8.193,8.235,8.235,0,0,0,8.225,8.225,8.209,8.209,0,0,0,8.193-8.225Z" transform="translate(632.213 4328.137)" fill="#f15a2c"/><path d="M-160.434,387.952a4.329,4.329,0,0,1-4.307,4.339,4.344,4.344,0,0,1-4.339-4.339,4.329,4.329,0,0,1,4.339-4.307,4.313,4.313,0,0,1,4.307,4.307m3.886,0a8.182,8.182,0,0,0-8.193-8.193,8.207,8.207,0,0,0-8.225,8.193,8.235,8.235,0,0,0,8.225,8.226,8.21,8.21,0,0,0,8.193-8.226Z" transform="translate(632.213 4300.202)" fill="#f15a2c"/></g></svg>