<svg xmlns="http://www.w3.org/2000/svg" xmlns:xlink="http://www.w3.org/1999/xlink" width="80" height="80" viewBox="0 0 80 80"><defs><clipPath id="b"><rect width="80" height="80"/></clipPath></defs><g id="a" clip-path="url(#b)"><g transform="translate(-898.544 -3688.525)"><g transform="translate(900.359 3690.346)"><path d="M704.763-284.382H686.111a15.182,15.182,0,0,1-15.182-15.182h0a15.182,15.182,0,0,1,15.182-15.182h25.452" transform="translate(-670.929 360.618)" fill="none" stroke="#0072bd" stroke-linecap="round" stroke-miterlimit="10" stroke-width="5"/><line y1="10.234" transform="translate(15.309 35.542)" fill="none" stroke="#0072bd" stroke-linecap="round" stroke-miterlimit="10" stroke-width="5"/><circle cx="17.854" cy="17.854" r="17.854" transform="translate(20.417 0)" fill="none" stroke="#0072bd" stroke-linecap="round" stroke-miterlimit="10" stroke-width="5"/><path d="M698.533-287.344H708.7a4.9,4.9,0,0,0,5.167-4.9,7.668,7.668,0,0,0-1.827-4.459,6.667,6.667,0,0,1-2.442-5.341,12.427,12.427,0,0,0-1.673-6.224c-4.369-5.913-10.047-5.455-10.047-5.455s-5.674-.458-10.043,5.455a12.77,12.77,0,0,0-1.673,6.224,7.336,7.336,0,0,1-2.418,5.5,6.937,6.937,0,0,0-1.851,4.3,4.9,4.9,0,0,0,5.171,4.9h11.469Z" transform="translate(-637.493 363.701)" fill="none" stroke="#0072bd" stroke-miterlimit="10" stroke-width="5"/><path d="M683.456-316h18.656s-1.818,9.177-8.723,9.177C684.375-306.825,683.456-316,683.456-316Z" transform="translate(-632.727 356.791)" fill="none" stroke="#0072bd" stroke-linejoin="round" stroke-width="5"/></g></g></g></svg>